<mxfile host="app.diagrams.net" modified="2021-03-12T02:04:30.192Z" agent="5.0 (Windows NT 10.0; Win64; x64) AppleWebKit/537.36 (KHTML, like Gecko) Chrome/88.0.4324.190 Safari/537.36" etag="0NbSNA4VsbprOzKi-gkg" version="14.4.5" type="github">
  <diagram id="fhYrM6fedOREc8LX-6zd" name="Page-1">
    <mxGraphModel dx="1240" dy="753" grid="0" gridSize="10" guides="1" tooltips="1" connect="1" arrows="1" fold="1" page="1" pageScale="1" pageWidth="1169" pageHeight="1654" math="0" shadow="0">
      <root>
        <mxCell id="0" />
        <mxCell id="1" parent="0" />
        <mxCell id="6hOFbWfF97zYFT2G8j-g-1" value="Cliente" style="swimlane;html=1;horizontal=0;startSize=20;" vertex="1" parent="1">
          <mxGeometry x="29" y="41" width="1111" height="477" as="geometry" />
        </mxCell>
        <mxCell id="6hOFbWfF97zYFT2G8j-g-12" style="edgeStyle=orthogonalEdgeStyle;rounded=0;orthogonalLoop=1;jettySize=auto;html=1;exitX=1;exitY=0.5;exitDx=0;exitDy=0;entryX=0;entryY=0.5;entryDx=0;entryDy=0;" edge="1" parent="6hOFbWfF97zYFT2G8j-g-1" source="6hOFbWfF97zYFT2G8j-g-3" target="6hOFbWfF97zYFT2G8j-g-5">
          <mxGeometry relative="1" as="geometry" />
        </mxCell>
        <mxCell id="6hOFbWfF97zYFT2G8j-g-3" value="" style="shape=mxgraph.bpmn.shape;html=1;verticalLabelPosition=bottom;labelBackgroundColor=#ffffff;verticalAlign=top;align=center;perimeter=ellipsePerimeter;outlineConnect=0;outline=standard;symbol=general;" vertex="1" parent="6hOFbWfF97zYFT2G8j-g-1">
          <mxGeometry x="35" y="129.5" width="50" height="50" as="geometry" />
        </mxCell>
        <mxCell id="6hOFbWfF97zYFT2G8j-g-7" style="edgeStyle=orthogonalEdgeStyle;rounded=0;orthogonalLoop=1;jettySize=auto;html=1;exitX=1;exitY=0.5;exitDx=0;exitDy=0;entryX=0;entryY=0.5;entryDx=0;entryDy=0;" edge="1" parent="6hOFbWfF97zYFT2G8j-g-1" source="6hOFbWfF97zYFT2G8j-g-5" target="6hOFbWfF97zYFT2G8j-g-6">
          <mxGeometry relative="1" as="geometry" />
        </mxCell>
        <mxCell id="6hOFbWfF97zYFT2G8j-g-5" value="Entrar" style="shape=ext;rounded=1;html=1;whiteSpace=wrap;" vertex="1" parent="6hOFbWfF97zYFT2G8j-g-1">
          <mxGeometry x="136" y="114.5" width="120" height="80" as="geometry" />
        </mxCell>
        <mxCell id="6hOFbWfF97zYFT2G8j-g-10" style="edgeStyle=orthogonalEdgeStyle;rounded=0;orthogonalLoop=1;jettySize=auto;html=1;exitX=0.5;exitY=0;exitDx=0;exitDy=0;entryX=0;entryY=0.5;entryDx=0;entryDy=0;" edge="1" parent="6hOFbWfF97zYFT2G8j-g-1" source="6hOFbWfF97zYFT2G8j-g-6" target="6hOFbWfF97zYFT2G8j-g-9">
          <mxGeometry relative="1" as="geometry" />
        </mxCell>
        <mxCell id="6hOFbWfF97zYFT2G8j-g-11" style="edgeStyle=orthogonalEdgeStyle;rounded=0;orthogonalLoop=1;jettySize=auto;html=1;exitX=0.5;exitY=1;exitDx=0;exitDy=0;entryX=0;entryY=0.5;entryDx=0;entryDy=0;" edge="1" parent="6hOFbWfF97zYFT2G8j-g-1" source="6hOFbWfF97zYFT2G8j-g-6" target="6hOFbWfF97zYFT2G8j-g-8">
          <mxGeometry relative="1" as="geometry" />
        </mxCell>
        <mxCell id="6hOFbWfF97zYFT2G8j-g-6" value="" style="rhombus;whiteSpace=wrap;html=1;" vertex="1" parent="6hOFbWfF97zYFT2G8j-g-1">
          <mxGeometry x="329" y="115" width="80" height="80" as="geometry" />
        </mxCell>
        <mxCell id="6hOFbWfF97zYFT2G8j-g-22" style="edgeStyle=orthogonalEdgeStyle;rounded=0;orthogonalLoop=1;jettySize=auto;html=1;exitX=1;exitY=0.5;exitDx=0;exitDy=0;entryX=0;entryY=0.5;entryDx=0;entryDy=0;" edge="1" parent="6hOFbWfF97zYFT2G8j-g-1" source="6hOFbWfF97zYFT2G8j-g-8" target="6hOFbWfF97zYFT2G8j-g-21">
          <mxGeometry relative="1" as="geometry" />
        </mxCell>
        <mxCell id="6hOFbWfF97zYFT2G8j-g-8" value="Login" style="shape=ext;rounded=1;html=1;whiteSpace=wrap;" vertex="1" parent="6hOFbWfF97zYFT2G8j-g-1">
          <mxGeometry x="433" y="215" width="120" height="80" as="geometry" />
        </mxCell>
        <mxCell id="6hOFbWfF97zYFT2G8j-g-14" style="edgeStyle=orthogonalEdgeStyle;rounded=0;orthogonalLoop=1;jettySize=auto;html=1;exitX=1;exitY=0.5;exitDx=0;exitDy=0;entryX=0.5;entryY=0;entryDx=0;entryDy=0;" edge="1" parent="6hOFbWfF97zYFT2G8j-g-1" source="6hOFbWfF97zYFT2G8j-g-9" target="6hOFbWfF97zYFT2G8j-g-21">
          <mxGeometry relative="1" as="geometry">
            <mxPoint x="713" y="53" as="targetPoint" />
          </mxGeometry>
        </mxCell>
        <mxCell id="6hOFbWfF97zYFT2G8j-g-9" value="Sign up" style="shape=ext;rounded=1;html=1;whiteSpace=wrap;" vertex="1" parent="6hOFbWfF97zYFT2G8j-g-1">
          <mxGeometry x="433" y="13" width="120" height="80" as="geometry" />
        </mxCell>
        <mxCell id="6hOFbWfF97zYFT2G8j-g-16" value="Tem conta?" style="text;html=1;align=center;verticalAlign=middle;resizable=0;points=[];autosize=1;" vertex="1" parent="6hOFbWfF97zYFT2G8j-g-1">
          <mxGeometry x="269" y="124" width="72" height="18" as="geometry" />
        </mxCell>
        <mxCell id="6hOFbWfF97zYFT2G8j-g-17" value="sim" style="text;html=1;align=center;verticalAlign=middle;resizable=0;points=[];autosize=1;" vertex="1" parent="6hOFbWfF97zYFT2G8j-g-1">
          <mxGeometry x="365" y="266" width="29" height="18" as="geometry" />
        </mxCell>
        <mxCell id="6hOFbWfF97zYFT2G8j-g-18" value="não" style="text;html=1;align=center;verticalAlign=middle;resizable=0;points=[];autosize=1;" vertex="1" parent="6hOFbWfF97zYFT2G8j-g-1">
          <mxGeometry x="370" y="26" width="30" height="18" as="geometry" />
        </mxCell>
        <mxCell id="6hOFbWfF97zYFT2G8j-g-26" style="edgeStyle=orthogonalEdgeStyle;rounded=0;orthogonalLoop=1;jettySize=auto;html=1;exitX=1;exitY=0.5;exitDx=0;exitDy=0;entryX=0;entryY=0.5;entryDx=0;entryDy=0;" edge="1" parent="6hOFbWfF97zYFT2G8j-g-1" source="6hOFbWfF97zYFT2G8j-g-21" target="6hOFbWfF97zYFT2G8j-g-25">
          <mxGeometry relative="1" as="geometry" />
        </mxCell>
        <mxCell id="6hOFbWfF97zYFT2G8j-g-32" style="edgeStyle=orthogonalEdgeStyle;rounded=0;orthogonalLoop=1;jettySize=auto;html=1;exitX=0.5;exitY=1;exitDx=0;exitDy=0;entryX=0.5;entryY=0;entryDx=0;entryDy=0;" edge="1" parent="6hOFbWfF97zYFT2G8j-g-1" source="6hOFbWfF97zYFT2G8j-g-21" target="6hOFbWfF97zYFT2G8j-g-31">
          <mxGeometry relative="1" as="geometry" />
        </mxCell>
        <mxCell id="6hOFbWfF97zYFT2G8j-g-21" value="" style="rhombus;whiteSpace=wrap;html=1;" vertex="1" parent="6hOFbWfF97zYFT2G8j-g-1">
          <mxGeometry x="733" y="215" width="80" height="80" as="geometry" />
        </mxCell>
        <mxCell id="6hOFbWfF97zYFT2G8j-g-24" value="Pretende relatar&lt;br&gt;problema?" style="text;html=1;align=center;verticalAlign=middle;resizable=0;points=[];autosize=1;" vertex="1" parent="6hOFbWfF97zYFT2G8j-g-1">
          <mxGeometry x="660" y="198" width="96" height="32" as="geometry" />
        </mxCell>
        <mxCell id="6hOFbWfF97zYFT2G8j-g-25" value="" style="ellipse;whiteSpace=wrap;html=1;aspect=fixed;" vertex="1" parent="6hOFbWfF97zYFT2G8j-g-1">
          <mxGeometry x="995" y="215" width="80" height="80" as="geometry" />
        </mxCell>
        <mxCell id="6hOFbWfF97zYFT2G8j-g-27" value="não" style="text;html=1;align=center;verticalAlign=middle;resizable=0;points=[];autosize=1;" vertex="1" parent="6hOFbWfF97zYFT2G8j-g-1">
          <mxGeometry x="808" y="226" width="30" height="18" as="geometry" />
        </mxCell>
        <mxCell id="6hOFbWfF97zYFT2G8j-g-28" value="sim" style="text;html=1;align=center;verticalAlign=middle;resizable=0;points=[];autosize=1;" vertex="1" parent="6hOFbWfF97zYFT2G8j-g-1">
          <mxGeometry x="779" y="295" width="29" height="18" as="geometry" />
        </mxCell>
        <mxCell id="6hOFbWfF97zYFT2G8j-g-31" value="Relata Problema" style="shape=ext;rounded=1;html=1;whiteSpace=wrap;" vertex="1" parent="6hOFbWfF97zYFT2G8j-g-1">
          <mxGeometry x="713" y="354" width="120" height="80" as="geometry" />
        </mxCell>
        <mxCell id="6hOFbWfF97zYFT2G8j-g-20" value="Tech Assistance" style="swimlane;html=1;horizontal=0;startSize=20;" vertex="1" parent="1">
          <mxGeometry x="29" y="527" width="1112" height="487" as="geometry" />
        </mxCell>
        <mxCell id="6hOFbWfF97zYFT2G8j-g-30" value="Técnico Online" style="swimlane;html=1;horizontal=0;startSize=20;" vertex="1" parent="6hOFbWfF97zYFT2G8j-g-20">
          <mxGeometry x="28" width="1084" height="240" as="geometry" />
        </mxCell>
        <mxCell id="6hOFbWfF97zYFT2G8j-g-37" style="edgeStyle=orthogonalEdgeStyle;rounded=0;orthogonalLoop=1;jettySize=auto;html=1;exitX=1;exitY=0.5;exitDx=0;exitDy=0;entryX=0;entryY=0.5;entryDx=0;entryDy=0;" edge="1" parent="6hOFbWfF97zYFT2G8j-g-30" source="6hOFbWfF97zYFT2G8j-g-33" target="6hOFbWfF97zYFT2G8j-g-36">
          <mxGeometry relative="1" as="geometry" />
        </mxCell>
        <mxCell id="6hOFbWfF97zYFT2G8j-g-33" value="Recebe o relatório do problema" style="shape=ext;rounded=1;html=1;whiteSpace=wrap;" vertex="1" parent="6hOFbWfF97zYFT2G8j-g-30">
          <mxGeometry x="49" y="80" width="120" height="80" as="geometry" />
        </mxCell>
        <mxCell id="6hOFbWfF97zYFT2G8j-g-41" style="edgeStyle=orthogonalEdgeStyle;rounded=0;orthogonalLoop=1;jettySize=auto;html=1;exitX=1;exitY=0.5;exitDx=0;exitDy=0;entryX=0;entryY=0.5;entryDx=0;entryDy=0;" edge="1" parent="6hOFbWfF97zYFT2G8j-g-30" source="6hOFbWfF97zYFT2G8j-g-36" target="6hOFbWfF97zYFT2G8j-g-40">
          <mxGeometry relative="1" as="geometry" />
        </mxCell>
        <mxCell id="6hOFbWfF97zYFT2G8j-g-36" value="Analisa problema" style="shape=ext;rounded=1;html=1;whiteSpace=wrap;" vertex="1" parent="6hOFbWfF97zYFT2G8j-g-30">
          <mxGeometry x="285" y="80" width="120" height="80" as="geometry" />
        </mxCell>
        <mxCell id="6hOFbWfF97zYFT2G8j-g-43" style="edgeStyle=orthogonalEdgeStyle;rounded=0;orthogonalLoop=1;jettySize=auto;html=1;exitX=1;exitY=0.5;exitDx=0;exitDy=0;entryX=0;entryY=0.5;entryDx=0;entryDy=0;" edge="1" parent="6hOFbWfF97zYFT2G8j-g-30" source="6hOFbWfF97zYFT2G8j-g-40" target="6hOFbWfF97zYFT2G8j-g-42">
          <mxGeometry relative="1" as="geometry" />
        </mxCell>
        <mxCell id="6hOFbWfF97zYFT2G8j-g-40" value="Atendimento online" style="shape=ext;rounded=1;html=1;whiteSpace=wrap;" vertex="1" parent="6hOFbWfF97zYFT2G8j-g-30">
          <mxGeometry x="521" y="80" width="120" height="80" as="geometry" />
        </mxCell>
        <mxCell id="6hOFbWfF97zYFT2G8j-g-42" value="" style="rhombus;whiteSpace=wrap;html=1;" vertex="1" parent="6hOFbWfF97zYFT2G8j-g-30">
          <mxGeometry x="801" y="80" width="80" height="80" as="geometry" />
        </mxCell>
        <mxCell id="6hOFbWfF97zYFT2G8j-g-45" value="Problema foi&lt;br&gt;resolvido?" style="text;html=1;align=center;verticalAlign=middle;resizable=0;points=[];autosize=1;" vertex="1" parent="6hOFbWfF97zYFT2G8j-g-30">
          <mxGeometry x="729" y="76" width="77" height="32" as="geometry" />
        </mxCell>
        <mxCell id="6hOFbWfF97zYFT2G8j-g-46" value="sim" style="text;html=1;align=center;verticalAlign=middle;resizable=0;points=[];autosize=1;" vertex="1" parent="6hOFbWfF97zYFT2G8j-g-30">
          <mxGeometry x="877" y="94" width="29" height="18" as="geometry" />
        </mxCell>
        <mxCell id="6hOFbWfF97zYFT2G8j-g-47" value="não" style="text;html=1;align=center;verticalAlign=middle;resizable=0;points=[];autosize=1;" vertex="1" parent="6hOFbWfF97zYFT2G8j-g-30">
          <mxGeometry x="847" y="164" width="30" height="18" as="geometry" />
        </mxCell>
        <mxCell id="6hOFbWfF97zYFT2G8j-g-49" value="Técnico Presencial" style="swimlane;html=1;horizontal=0;startSize=20;" vertex="1" parent="6hOFbWfF97zYFT2G8j-g-20">
          <mxGeometry x="28" y="240" width="1083" height="247" as="geometry" />
        </mxCell>
        <mxCell id="6hOFbWfF97zYFT2G8j-g-53" style="edgeStyle=orthogonalEdgeStyle;rounded=0;orthogonalLoop=1;jettySize=auto;html=1;exitX=1;exitY=0.5;exitDx=0;exitDy=0;entryX=0;entryY=0.5;entryDx=0;entryDy=0;" edge="1" parent="6hOFbWfF97zYFT2G8j-g-49" source="6hOFbWfF97zYFT2G8j-g-50" target="6hOFbWfF97zYFT2G8j-g-52">
          <mxGeometry relative="1" as="geometry" />
        </mxCell>
        <mxCell id="6hOFbWfF97zYFT2G8j-g-50" value="Recebe o relatório do problema" style="shape=ext;rounded=1;html=1;whiteSpace=wrap;" vertex="1" parent="6hOFbWfF97zYFT2G8j-g-49">
          <mxGeometry x="44" y="84" width="120" height="80" as="geometry" />
        </mxCell>
        <mxCell id="6hOFbWfF97zYFT2G8j-g-55" style="edgeStyle=orthogonalEdgeStyle;rounded=0;orthogonalLoop=1;jettySize=auto;html=1;exitX=1;exitY=0.5;exitDx=0;exitDy=0;entryX=0;entryY=0.5;entryDx=0;entryDy=0;" edge="1" parent="6hOFbWfF97zYFT2G8j-g-49" source="6hOFbWfF97zYFT2G8j-g-52" target="6hOFbWfF97zYFT2G8j-g-54">
          <mxGeometry relative="1" as="geometry" />
        </mxCell>
        <mxCell id="6hOFbWfF97zYFT2G8j-g-52" value="Analisa o problema" style="shape=ext;rounded=1;html=1;whiteSpace=wrap;" vertex="1" parent="6hOFbWfF97zYFT2G8j-g-49">
          <mxGeometry x="281" y="84" width="120" height="80" as="geometry" />
        </mxCell>
        <mxCell id="6hOFbWfF97zYFT2G8j-g-57" style="edgeStyle=orthogonalEdgeStyle;rounded=0;orthogonalLoop=1;jettySize=auto;html=1;exitX=1;exitY=0.5;exitDx=0;exitDy=0;entryX=0;entryY=0.5;entryDx=0;entryDy=0;" edge="1" parent="6hOFbWfF97zYFT2G8j-g-49" source="6hOFbWfF97zYFT2G8j-g-54" target="6hOFbWfF97zYFT2G8j-g-56">
          <mxGeometry relative="1" as="geometry" />
        </mxCell>
        <mxCell id="6hOFbWfF97zYFT2G8j-g-54" value="Atendimento presencial" style="shape=ext;rounded=1;html=1;whiteSpace=wrap;" vertex="1" parent="6hOFbWfF97zYFT2G8j-g-49">
          <mxGeometry x="521" y="84" width="120" height="80" as="geometry" />
        </mxCell>
        <mxCell id="6hOFbWfF97zYFT2G8j-g-56" value="Considerações finais do técnico" style="shape=ext;rounded=1;html=1;whiteSpace=wrap;" vertex="1" parent="6hOFbWfF97zYFT2G8j-g-49">
          <mxGeometry x="761" y="84" width="120" height="80" as="geometry" />
        </mxCell>
        <mxCell id="6hOFbWfF97zYFT2G8j-g-51" style="edgeStyle=orthogonalEdgeStyle;rounded=0;orthogonalLoop=1;jettySize=auto;html=1;exitX=0.5;exitY=1;exitDx=0;exitDy=0;entryX=0.5;entryY=0;entryDx=0;entryDy=0;" edge="1" parent="6hOFbWfF97zYFT2G8j-g-20" source="6hOFbWfF97zYFT2G8j-g-42" target="6hOFbWfF97zYFT2G8j-g-50">
          <mxGeometry relative="1" as="geometry">
            <Array as="points">
              <mxPoint x="869" y="277" />
              <mxPoint x="132" y="277" />
            </Array>
          </mxGeometry>
        </mxCell>
        <mxCell id="6hOFbWfF97zYFT2G8j-g-48" style="edgeStyle=orthogonalEdgeStyle;rounded=0;orthogonalLoop=1;jettySize=auto;html=1;exitX=0;exitY=0.5;exitDx=0;exitDy=0;entryX=0.5;entryY=0;entryDx=0;entryDy=0;" edge="1" parent="1" source="6hOFbWfF97zYFT2G8j-g-31" target="6hOFbWfF97zYFT2G8j-g-33">
          <mxGeometry relative="1" as="geometry" />
        </mxCell>
        <mxCell id="6hOFbWfF97zYFT2G8j-g-58" style="edgeStyle=orthogonalEdgeStyle;rounded=0;orthogonalLoop=1;jettySize=auto;html=1;exitX=1;exitY=0.5;exitDx=0;exitDy=0;entryX=0.5;entryY=1;entryDx=0;entryDy=0;" edge="1" parent="1" source="6hOFbWfF97zYFT2G8j-g-56" target="6hOFbWfF97zYFT2G8j-g-25">
          <mxGeometry relative="1" as="geometry">
            <mxPoint x="1063.7058823529414" y="647.0588235294117" as="targetPoint" />
          </mxGeometry>
        </mxCell>
        <mxCell id="6hOFbWfF97zYFT2G8j-g-59" style="edgeStyle=orthogonalEdgeStyle;rounded=0;orthogonalLoop=1;jettySize=auto;html=1;exitX=1;exitY=0.5;exitDx=0;exitDy=0;" edge="1" parent="1" source="6hOFbWfF97zYFT2G8j-g-42">
          <mxGeometry relative="1" as="geometry">
            <mxPoint x="1065" y="647" as="targetPoint" />
          </mxGeometry>
        </mxCell>
      </root>
    </mxGraphModel>
  </diagram>
</mxfile>
